<svg width="214" height="49" viewBox="0 0 214 49" fill="none" xmlns="http://www.w3.org/2000/svg">
<path d="M72.0847 31.8945V48H60.1267V3.74023H74.6277C86.6563 3.74023 92.6706 8.09961 92.6706 16.8184C92.6706 21.9447 90.168 25.9105 85.1628 28.7158L98.0593 48H84.4968L75.1121 31.8945H72.0847ZM72.0847 22.9033H74.3249C78.5027 22.9033 80.5915 21.0566 80.5915 17.3633C80.5915 14.3158 78.543 12.792 74.446 12.792H72.0847V22.9033Z" fill="white"/>
<path d="M113.862 48H102.086V3.74023H128.242V13.3369H113.862V21.7832H127.122V31.3799H113.862V48Z" fill="white"/>
<path d="M173.077 24.9316C173.077 32.3184 171.038 38.0098 166.962 42.0059C162.905 46.002 157.193 48 149.827 48H135.508V3.74023H150.826C157.93 3.74023 163.41 5.55664 167.264 9.18945C171.139 12.8223 173.077 18.0697 173.077 24.9316ZM160.665 25.3555C160.665 21.2988 159.857 18.2917 158.243 16.334C156.649 14.3763 154.217 13.3975 150.947 13.3975H147.466V38.1914H150.13C153.762 38.1914 156.427 37.1419 158.122 35.043C159.817 32.9238 160.665 29.6947 160.665 25.3555Z" fill="white"/>
<path d="M201.292 13.0947C205.025 13.0947 207.982 14.6589 210.162 17.7871C212.362 20.9154 213.462 25.2445 213.462 30.7744C213.462 36.3447 212.352 40.7142 210.132 43.8828C207.932 47.0312 204.864 48.6055 200.928 48.6055C199.657 48.6055 198.527 48.4642 197.538 48.1816C196.549 47.9193 195.661 47.5459 194.874 47.0615C194.107 46.5771 193.209 45.7699 192.179 44.6396H191.453L189.576 48H180.343V0.894531H192.179V11.5508C192.179 12.8223 192.038 15.012 191.756 18.1201H192.179C193.33 16.3441 194.652 15.0625 196.145 14.2754C197.659 13.4883 199.374 13.0947 201.292 13.0947ZM196.963 22.3887C195.308 22.3887 194.097 22.9639 193.33 24.1143C192.563 25.2646 192.179 27.071 192.179 29.5332V31.1982C192.179 34.0036 192.563 36.0218 193.33 37.2529C194.097 38.4639 195.348 39.0693 197.084 39.0693C198.476 39.0693 199.546 38.363 200.293 36.9502C201.039 35.5173 201.413 33.4183 201.413 30.6533C201.413 25.1436 199.929 22.3887 196.963 22.3887Z" fill="white"/>
<path d="M47.0305 3H46.2595V5.34375C46.2595 6.11719 45.7391 6.75 45.103 6.75H41.2481C40.612 6.75 40.0916 6.11719 40.0916 5.34375V3H9.2519V5.34375C9.2519 6.11719 8.73149 6.75 8.09542 6.75H4.24046C3.60439 6.75 3.08397 6.11719 3.08397 5.34375V3H2.31298C1.0312 3 0 4.25391 0 5.8125V45.1875C0 46.7461 1.0312 48 2.31298 48H3.08397V45.6562C3.08397 44.8828 3.60439 44.25 4.24046 44.25H8.09542C8.73149 44.25 9.2519 44.8828 9.2519 45.6562V48H40.0916V45.6562C40.0916 44.8828 40.612 44.25 41.2481 44.25H45.103C45.7391 44.25 46.2595 44.8828 46.2595 45.6562V48H47.0305C48.3123 48 49.3435 46.7461 49.3435 45.1875V5.8125C49.3435 4.25391 48.3123 3 47.0305 3ZM9.2519 39.0937C9.2519 39.8672 8.73149 40.5 8.09542 40.5H4.24046C3.60439 40.5 3.08397 39.8672 3.08397 39.0937V34.4063C3.08397 33.6328 3.60439 33 4.24046 33H8.09542C8.73149 33 9.2519 33.6328 9.2519 34.4063V39.0937ZM9.2519 27.8437C9.2519 28.6172 8.73149 29.25 8.09542 29.25H4.24046C3.60439 29.25 3.08397 28.6172 3.08397 27.8437V23.1562C3.08397 22.3828 3.60439 21.75 4.24046 21.75H8.09542C8.73149 21.75 9.2519 22.3828 9.2519 23.1562V27.8437ZM9.2519 16.5938C9.2519 17.3672 8.73149 18 8.09542 18H4.24046C3.60439 18 3.08397 17.3672 3.08397 16.5938V11.9063C3.08397 11.1328 3.60439 10.5 4.24046 10.5H8.09542C8.73149 10.5 9.2519 11.1328 9.2519 11.9063V16.5938ZM35.4656 40.9687C35.4656 41.7422 34.9452 42.375 34.3091 42.375H15.0343C14.3983 42.375 13.8779 41.7422 13.8779 40.9687V29.7187C13.8779 28.9453 14.3983 28.3125 15.0343 28.3125H34.3091C34.9452 28.3125 35.4656 28.9453 35.4656 29.7187V40.9687ZM35.4656 21.2812C35.4656 22.0547 34.9452 22.6875 34.3091 22.6875H15.0343C14.3983 22.6875 13.8779 22.0547 13.8779 21.2812V10.0312C13.8779 9.25781 14.3983 8.625 15.0343 8.625H34.3091C34.9452 8.625 35.4656 9.25781 35.4656 10.0312V21.2812ZM46.2595 39.0937C46.2595 39.8672 45.7391 40.5 45.103 40.5H41.2481C40.612 40.5 40.0916 39.8672 40.0916 39.0937V34.4063C40.0916 33.6328 40.612 33 41.2481 33H45.103C45.7391 33 46.2595 33.6328 46.2595 34.4063V39.0937ZM46.2595 27.8437C46.2595 28.6172 45.7391 29.25 45.103 29.25H41.2481C40.612 29.25 40.0916 28.6172 40.0916 27.8437V23.1562C40.0916 22.3828 40.612 21.75 41.2481 21.75H45.103C45.7391 21.75 46.2595 22.3828 46.2595 23.1562V27.8437ZM46.2595 16.5938C46.2595 17.3672 45.7391 18 45.103 18H41.2481C40.612 18 40.0916 17.3672 40.0916 16.5938V11.9063C40.0916 11.1328 40.612 10.5 41.2481 10.5H45.103C45.7391 10.5 46.2595 11.1328 46.2595 11.9063V16.5938Z" fill="white"/>
</svg>
